<mxfile host="app.diagrams.net" modified="2023-07-07T16:52:20.519Z" agent="Mozilla/5.0 (Macintosh; Intel Mac OS X 10.15; rv:109.0) Gecko/20100101 Firefox/114.0" etag="B6ak1fOAiW5dzkEAKRiI" version="21.6.1" type="device">
  <diagram name="Page-1" id="qPyLBsRdAxL-42QQaer6">
    <mxGraphModel dx="1279" dy="777" grid="1" gridSize="10" guides="1" tooltips="1" connect="1" arrows="1" fold="1" page="1" pageScale="1" pageWidth="827" pageHeight="1169" math="0" shadow="0">
      <root>
        <mxCell id="0" />
        <mxCell id="1" parent="0" />
        <mxCell id="9xJEDV4C4dEwRKaLVc5d-67" style="edgeStyle=orthogonalEdgeStyle;rounded=0;orthogonalLoop=1;jettySize=auto;html=1;entryX=0.5;entryY=1;entryDx=0;entryDy=0;endArrow=ERmany;endFill=0;" edge="1" parent="1" source="9xJEDV4C4dEwRKaLVc5d-42" target="9xJEDV4C4dEwRKaLVc5d-65">
          <mxGeometry relative="1" as="geometry" />
        </mxCell>
        <mxCell id="9xJEDV4C4dEwRKaLVc5d-42" value="&lt;div&gt;Player&lt;/div&gt;" style="swimlane;whiteSpace=wrap;html=1;startSize=30;" vertex="1" parent="1">
          <mxGeometry x="482.5" y="579" width="166" height="120" as="geometry">
            <mxRectangle x="251" y="320" width="80" height="30" as="alternateBounds" />
          </mxGeometry>
        </mxCell>
        <mxCell id="9xJEDV4C4dEwRKaLVc5d-75" value="+ totalFunds: double" style="text;html=1;align=center;verticalAlign=middle;resizable=0;points=[];autosize=1;strokeColor=none;fillColor=none;" vertex="1" parent="9xJEDV4C4dEwRKaLVc5d-42">
          <mxGeometry y="50" width="130" height="30" as="geometry" />
        </mxCell>
        <mxCell id="9xJEDV4C4dEwRKaLVc5d-76" value="+ username: string" style="text;html=1;align=center;verticalAlign=middle;resizable=0;points=[];autosize=1;strokeColor=none;fillColor=none;" vertex="1" parent="9xJEDV4C4dEwRKaLVc5d-42">
          <mxGeometry y="30" width="120" height="30" as="geometry" />
        </mxCell>
        <mxCell id="9xJEDV4C4dEwRKaLVc5d-68" style="edgeStyle=orthogonalEdgeStyle;rounded=0;orthogonalLoop=1;jettySize=auto;html=1;entryX=0;entryY=0.5;entryDx=0;entryDy=0;endArrow=ERmany;endFill=0;exitX=1;exitY=0.5;exitDx=0;exitDy=0;" edge="1" parent="1" source="9xJEDV4C4dEwRKaLVc5d-46" target="9xJEDV4C4dEwRKaLVc5d-60">
          <mxGeometry relative="1" as="geometry">
            <mxPoint x="400" y="392.5" as="sourcePoint" />
          </mxGeometry>
        </mxCell>
        <mxCell id="9xJEDV4C4dEwRKaLVc5d-109" style="edgeStyle=orthogonalEdgeStyle;rounded=0;orthogonalLoop=1;jettySize=auto;html=1;entryX=0.5;entryY=1;entryDx=0;entryDy=0;" edge="1" parent="1" source="9xJEDV4C4dEwRKaLVc5d-46" target="9xJEDV4C4dEwRKaLVc5d-105">
          <mxGeometry relative="1" as="geometry" />
        </mxCell>
        <mxCell id="9xJEDV4C4dEwRKaLVc5d-46" value="Table" style="swimlane;whiteSpace=wrap;html=1;" vertex="1" parent="1">
          <mxGeometry x="80" y="261.75" width="155" height="120.5" as="geometry">
            <mxRectangle x="110" y="70" width="80" height="30" as="alternateBounds" />
          </mxGeometry>
        </mxCell>
        <mxCell id="9xJEDV4C4dEwRKaLVc5d-78" value="+ name: string" style="text;html=1;align=center;verticalAlign=middle;resizable=0;points=[];autosize=1;strokeColor=none;fillColor=none;" vertex="1" parent="9xJEDV4C4dEwRKaLVc5d-46">
          <mxGeometry y="20" width="100" height="30" as="geometry" />
        </mxCell>
        <mxCell id="9xJEDV4C4dEwRKaLVc5d-79" value="+ maxSize: int" style="text;html=1;align=center;verticalAlign=middle;resizable=0;points=[];autosize=1;strokeColor=none;fillColor=none;" vertex="1" parent="9xJEDV4C4dEwRKaLVc5d-46">
          <mxGeometry y="50" width="100" height="30" as="geometry" />
        </mxCell>
        <mxCell id="9xJEDV4C4dEwRKaLVc5d-108" value="+ gameType: GameType" style="text;html=1;align=center;verticalAlign=middle;resizable=0;points=[];autosize=1;strokeColor=none;fillColor=none;" vertex="1" parent="9xJEDV4C4dEwRKaLVc5d-46">
          <mxGeometry y="80" width="160" height="30" as="geometry" />
        </mxCell>
        <mxCell id="9xJEDV4C4dEwRKaLVc5d-118" style="edgeStyle=orthogonalEdgeStyle;rounded=0;orthogonalLoop=1;jettySize=auto;html=1;" edge="1" parent="1" source="9xJEDV4C4dEwRKaLVc5d-47" target="9xJEDV4C4dEwRKaLVc5d-110">
          <mxGeometry relative="1" as="geometry" />
        </mxCell>
        <mxCell id="9xJEDV4C4dEwRKaLVc5d-47" value="Hand" style="swimlane;whiteSpace=wrap;html=1;startSize=23;" vertex="1" parent="1">
          <mxGeometry x="710" y="425" width="160" height="100" as="geometry">
            <mxRectangle x="550" y="220" width="80" height="30" as="alternateBounds" />
          </mxGeometry>
        </mxCell>
        <mxCell id="9xJEDV4C4dEwRKaLVc5d-112" value="+ handType: HandType" style="text;html=1;align=center;verticalAlign=middle;resizable=0;points=[];autosize=1;strokeColor=none;fillColor=none;" vertex="1" parent="9xJEDV4C4dEwRKaLVc5d-47">
          <mxGeometry y="25" width="150" height="30" as="geometry" />
        </mxCell>
        <mxCell id="9xJEDV4C4dEwRKaLVc5d-125" value="+ winner: boolean" style="text;html=1;align=center;verticalAlign=middle;resizable=0;points=[];autosize=1;strokeColor=none;fillColor=none;" vertex="1" parent="9xJEDV4C4dEwRKaLVc5d-47">
          <mxGeometry y="55" width="120" height="30" as="geometry" />
        </mxCell>
        <mxCell id="9xJEDV4C4dEwRKaLVc5d-81" style="edgeStyle=orthogonalEdgeStyle;rounded=0;orthogonalLoop=1;jettySize=auto;html=1;entryX=0.5;entryY=1;entryDx=0;entryDy=0;endArrow=none;endFill=0;startArrow=ERmany;startFill=0;" edge="1" parent="1" source="9xJEDV4C4dEwRKaLVc5d-48" target="9xJEDV4C4dEwRKaLVc5d-47">
          <mxGeometry relative="1" as="geometry" />
        </mxCell>
        <mxCell id="9xJEDV4C4dEwRKaLVc5d-116" style="edgeStyle=orthogonalEdgeStyle;rounded=0;orthogonalLoop=1;jettySize=auto;html=1;entryX=0.5;entryY=0;entryDx=0;entryDy=0;" edge="1" parent="1" source="9xJEDV4C4dEwRKaLVc5d-48" target="9xJEDV4C4dEwRKaLVc5d-113">
          <mxGeometry relative="1" as="geometry" />
        </mxCell>
        <mxCell id="9xJEDV4C4dEwRKaLVc5d-48" value="Card" style="swimlane;whiteSpace=wrap;html=1;startSize=23;" vertex="1" parent="1">
          <mxGeometry x="732.5" y="585" width="115" height="106" as="geometry">
            <mxRectangle x="580" y="390" width="80" height="30" as="alternateBounds" />
          </mxGeometry>
        </mxCell>
        <mxCell id="9xJEDV4C4dEwRKaLVc5d-100" value="+ rank: int" style="text;html=1;align=center;verticalAlign=middle;resizable=0;points=[];autosize=1;strokeColor=none;fillColor=none;" vertex="1" parent="9xJEDV4C4dEwRKaLVc5d-48">
          <mxGeometry y="26" width="80" height="30" as="geometry" />
        </mxCell>
        <mxCell id="9xJEDV4C4dEwRKaLVc5d-101" value="+ suit: SuitType" style="text;html=1;align=center;verticalAlign=middle;resizable=0;points=[];autosize=1;strokeColor=none;fillColor=none;" vertex="1" parent="9xJEDV4C4dEwRKaLVc5d-48">
          <mxGeometry y="56" width="110" height="30" as="geometry" />
        </mxCell>
        <mxCell id="9xJEDV4C4dEwRKaLVc5d-63" style="edgeStyle=orthogonalEdgeStyle;rounded=0;orthogonalLoop=1;jettySize=auto;html=1;entryX=0.5;entryY=0;entryDx=0;entryDy=0;endArrow=ERmany;endFill=0;" edge="1" parent="1" source="9xJEDV4C4dEwRKaLVc5d-60" target="9xJEDV4C4dEwRKaLVc5d-47">
          <mxGeometry relative="1" as="geometry" />
        </mxCell>
        <mxCell id="9xJEDV4C4dEwRKaLVc5d-72" style="edgeStyle=orthogonalEdgeStyle;rounded=0;orthogonalLoop=1;jettySize=auto;html=1;entryX=0.5;entryY=0;entryDx=0;entryDy=0;endArrow=ERmany;endFill=0;" edge="1" parent="1" source="9xJEDV4C4dEwRKaLVc5d-60" target="9xJEDV4C4dEwRKaLVc5d-65">
          <mxGeometry relative="1" as="geometry" />
        </mxCell>
        <mxCell id="9xJEDV4C4dEwRKaLVc5d-95" style="edgeStyle=orthogonalEdgeStyle;rounded=0;orthogonalLoop=1;jettySize=auto;html=1;exitX=0.5;exitY=0;exitDx=0;exitDy=0;endArrow=ERmany;endFill=0;" edge="1" parent="1" source="9xJEDV4C4dEwRKaLVc5d-60">
          <mxGeometry relative="1" as="geometry">
            <mxPoint x="440" y="165" as="targetPoint" />
            <Array as="points">
              <mxPoint x="510" y="292" />
              <mxPoint x="510" y="165" />
            </Array>
          </mxGeometry>
        </mxCell>
        <mxCell id="9xJEDV4C4dEwRKaLVc5d-96" value="If 1 pot, then pot for all Players;&lt;br&gt;If Many pot, then split pot by Players" style="edgeLabel;html=1;align=center;verticalAlign=middle;resizable=0;points=[];" vertex="1" connectable="0" parent="9xJEDV4C4dEwRKaLVc5d-95">
          <mxGeometry x="0.0617" y="2" relative="1" as="geometry">
            <mxPoint x="40" y="-69" as="offset" />
          </mxGeometry>
        </mxCell>
        <mxCell id="9xJEDV4C4dEwRKaLVc5d-124" style="edgeStyle=orthogonalEdgeStyle;rounded=0;orthogonalLoop=1;jettySize=auto;html=1;" edge="1" parent="1" source="9xJEDV4C4dEwRKaLVc5d-60">
          <mxGeometry relative="1" as="geometry">
            <mxPoint x="790" y="200" as="targetPoint" />
            <Array as="points">
              <mxPoint x="567" y="230" />
              <mxPoint x="791" y="230" />
              <mxPoint x="791" y="200" />
            </Array>
          </mxGeometry>
        </mxCell>
        <mxCell id="9xJEDV4C4dEwRKaLVc5d-60" value="Round" style="swimlane;whiteSpace=wrap;html=1;startSize=23;" vertex="1" parent="1">
          <mxGeometry x="488" y="292" width="157" height="60" as="geometry">
            <mxRectangle x="281" y="95" width="80" height="30" as="alternateBounds" />
          </mxGeometry>
        </mxCell>
        <mxCell id="9xJEDV4C4dEwRKaLVc5d-122" value="+ roundState: RoundState" style="text;html=1;align=center;verticalAlign=middle;resizable=0;points=[];autosize=1;strokeColor=none;fillColor=none;" vertex="1" parent="9xJEDV4C4dEwRKaLVc5d-60">
          <mxGeometry x="-3" y="19.75" width="160" height="30" as="geometry" />
        </mxCell>
        <mxCell id="9xJEDV4C4dEwRKaLVc5d-82" style="edgeStyle=orthogonalEdgeStyle;rounded=0;orthogonalLoop=1;jettySize=auto;html=1;entryX=0;entryY=0.5;entryDx=0;entryDy=0;endArrow=none;endFill=0;" edge="1" parent="1" source="9xJEDV4C4dEwRKaLVc5d-65" target="9xJEDV4C4dEwRKaLVc5d-47">
          <mxGeometry relative="1" as="geometry" />
        </mxCell>
        <mxCell id="9xJEDV4C4dEwRKaLVc5d-65" value="PlayerRound" style="swimlane;whiteSpace=wrap;html=1;" vertex="1" parent="1">
          <mxGeometry x="476" y="399" width="179" height="150" as="geometry">
            <mxRectangle x="180" y="230" width="160" height="30" as="alternateBounds" />
          </mxGeometry>
        </mxCell>
        <mxCell id="9xJEDV4C4dEwRKaLVc5d-69" value="+ funds: double" style="text;html=1;align=center;verticalAlign=middle;resizable=0;points=[];autosize=1;strokeColor=none;fillColor=none;" vertex="1" parent="9xJEDV4C4dEwRKaLVc5d-65">
          <mxGeometry x="-5" y="20" width="110" height="30" as="geometry" />
        </mxCell>
        <mxCell id="9xJEDV4C4dEwRKaLVc5d-80" value="+ position: int" style="text;html=1;align=center;verticalAlign=middle;resizable=0;points=[];autosize=1;strokeColor=none;fillColor=none;" vertex="1" parent="9xJEDV4C4dEwRKaLVc5d-65">
          <mxGeometry y="38" width="90" height="30" as="geometry" />
        </mxCell>
        <mxCell id="9xJEDV4C4dEwRKaLVc5d-98" value="+ dealer: boolean" style="text;html=1;align=center;verticalAlign=middle;resizable=0;points=[];autosize=1;strokeColor=none;fillColor=none;" vertex="1" parent="9xJEDV4C4dEwRKaLVc5d-65">
          <mxGeometry x="-5" y="58" width="120" height="30" as="geometry" />
        </mxCell>
        <mxCell id="9xJEDV4C4dEwRKaLVc5d-99" value="+ current: boolean" style="text;html=1;align=center;verticalAlign=middle;resizable=0;points=[];autosize=1;strokeColor=none;fillColor=none;" vertex="1" parent="9xJEDV4C4dEwRKaLVc5d-65">
          <mxGeometry x="-5" y="80" width="120" height="30" as="geometry" />
        </mxCell>
        <mxCell id="9xJEDV4C4dEwRKaLVc5d-87" style="edgeStyle=orthogonalEdgeStyle;rounded=0;orthogonalLoop=1;jettySize=auto;html=1;exitX=0.5;exitY=0;exitDx=0;exitDy=0;endArrow=ERmany;endFill=0;entryX=1;entryY=0.5;entryDx=0;entryDy=0;" edge="1" parent="1" source="9xJEDV4C4dEwRKaLVc5d-60" target="9xJEDV4C4dEwRKaLVc5d-48">
          <mxGeometry relative="1" as="geometry">
            <mxPoint x="960" y="292" as="sourcePoint" />
            <mxPoint x="825" y="684" as="targetPoint" />
            <Array as="points">
              <mxPoint x="620" y="292" />
              <mxPoint x="620" y="260" />
              <mxPoint x="910" y="260" />
              <mxPoint x="910" y="638" />
            </Array>
          </mxGeometry>
        </mxCell>
        <mxCell id="9xJEDV4C4dEwRKaLVc5d-88" value="Community Cards" style="edgeLabel;html=1;align=center;verticalAlign=middle;resizable=0;points=[];" vertex="1" connectable="0" parent="9xJEDV4C4dEwRKaLVc5d-87">
          <mxGeometry x="0.8877" y="-1" relative="1" as="geometry">
            <mxPoint x="-26" y="-387" as="offset" />
          </mxGeometry>
        </mxCell>
        <mxCell id="9xJEDV4C4dEwRKaLVc5d-93" style="edgeStyle=orthogonalEdgeStyle;rounded=0;orthogonalLoop=1;jettySize=auto;html=1;endArrow=ERmany;endFill=0;startArrow=ERmany;startFill=0;" edge="1" parent="1" source="9xJEDV4C4dEwRKaLVc5d-89" target="9xJEDV4C4dEwRKaLVc5d-65">
          <mxGeometry relative="1" as="geometry">
            <Array as="points">
              <mxPoint x="290" y="165" />
              <mxPoint x="290" y="475" />
            </Array>
          </mxGeometry>
        </mxCell>
        <mxCell id="9xJEDV4C4dEwRKaLVc5d-94" value="Optional in split pot situation" style="edgeLabel;html=1;align=center;verticalAlign=middle;resizable=0;points=[];" vertex="1" connectable="0" parent="9xJEDV4C4dEwRKaLVc5d-93">
          <mxGeometry x="0.4365" y="1" relative="1" as="geometry">
            <mxPoint x="34" y="21" as="offset" />
          </mxGeometry>
        </mxCell>
        <mxCell id="9xJEDV4C4dEwRKaLVc5d-89" value="Pot" style="swimlane;whiteSpace=wrap;html=1;startSize=23;" vertex="1" parent="1">
          <mxGeometry x="335" y="135" width="100" height="60" as="geometry">
            <mxRectangle x="281" y="95" width="80" height="30" as="alternateBounds" />
          </mxGeometry>
        </mxCell>
        <mxCell id="9xJEDV4C4dEwRKaLVc5d-97" value="+ total: double" style="text;html=1;align=center;verticalAlign=middle;resizable=0;points=[];autosize=1;strokeColor=none;fillColor=none;" vertex="1" parent="9xJEDV4C4dEwRKaLVc5d-89">
          <mxGeometry x="-5" y="20" width="100" height="30" as="geometry" />
        </mxCell>
        <mxCell id="9xJEDV4C4dEwRKaLVc5d-105" value="GameType &amp;lt;Enum&amp;gt;" style="swimlane;whiteSpace=wrap;html=1;startSize=23;" vertex="1" parent="1">
          <mxGeometry x="87.5" y="115" width="140" height="80" as="geometry">
            <mxRectangle x="110" y="70" width="80" height="30" as="alternateBounds" />
          </mxGeometry>
        </mxCell>
        <mxCell id="9xJEDV4C4dEwRKaLVc5d-106" value="BLACKJACK &lt;br&gt;TEXAS_HOLDEM" style="text;html=1;align=center;verticalAlign=middle;resizable=0;points=[];autosize=1;strokeColor=none;fillColor=none;" vertex="1" parent="9xJEDV4C4dEwRKaLVc5d-105">
          <mxGeometry x="10" y="30" width="120" height="40" as="geometry" />
        </mxCell>
        <mxCell id="9xJEDV4C4dEwRKaLVc5d-110" value="HandType &amp;lt;Enum&amp;gt;" style="swimlane;whiteSpace=wrap;html=1;startSize=23;" vertex="1" parent="1">
          <mxGeometry x="980" y="375.88" width="150" height="198.25" as="geometry">
            <mxRectangle x="110" y="70" width="80" height="30" as="alternateBounds" />
          </mxGeometry>
        </mxCell>
        <mxCell id="9xJEDV4C4dEwRKaLVc5d-111" value="&amp;nbsp;&amp;nbsp;&amp;nbsp; ROYAL_FLUSH&lt;br&gt;&amp;nbsp;&amp;nbsp;&amp;nbsp; STRAIGHT_FLUSH&lt;br&gt;&amp;nbsp;&amp;nbsp;&amp;nbsp; FOUR_OF_A_KIND&lt;br&gt;&amp;nbsp;&amp;nbsp;&amp;nbsp; FULL_HOUSE&lt;br&gt;&amp;nbsp;&amp;nbsp;&amp;nbsp; FLUSH&lt;br&gt;&amp;nbsp;&amp;nbsp;&amp;nbsp; STRAIGHT&lt;br&gt;&amp;nbsp;&amp;nbsp;&amp;nbsp; THREE_OF_A_KIND&lt;br&gt;&amp;nbsp;&amp;nbsp;&amp;nbsp; TWO_PAIR&lt;br&gt;&amp;nbsp;&amp;nbsp;&amp;nbsp; PAIR&lt;br&gt;&amp;nbsp;&amp;nbsp;&amp;nbsp; HIGH_CARD&lt;br&gt;&amp;nbsp;&amp;nbsp;&amp;nbsp; EMPTY_HAND" style="text;html=1;align=center;verticalAlign=middle;resizable=0;points=[];autosize=1;strokeColor=none;fillColor=none;" vertex="1" parent="9xJEDV4C4dEwRKaLVc5d-110">
          <mxGeometry x="-10" y="26.25" width="150" height="170" as="geometry" />
        </mxCell>
        <mxCell id="9xJEDV4C4dEwRKaLVc5d-113" value="SuitType &amp;lt;Enum&amp;gt;" style="swimlane;whiteSpace=wrap;html=1;startSize=23;" vertex="1" parent="1">
          <mxGeometry x="725" y="760" width="130" height="100" as="geometry">
            <mxRectangle x="110" y="70" width="80" height="30" as="alternateBounds" />
          </mxGeometry>
        </mxCell>
        <mxCell id="9xJEDV4C4dEwRKaLVc5d-114" value="&lt;div&gt;SPADES&lt;/div&gt;&lt;div&gt;HEARDS&lt;/div&gt;&lt;div&gt;DIAMONDS&lt;/div&gt;&lt;div&gt;CLUBS&lt;br&gt;&lt;/div&gt;&lt;div&gt;&lt;br&gt;&lt;/div&gt;" style="text;html=1;align=center;verticalAlign=middle;resizable=0;points=[];autosize=1;strokeColor=none;fillColor=none;" vertex="1" parent="9xJEDV4C4dEwRKaLVc5d-113">
          <mxGeometry x="20" y="21" width="90" height="90" as="geometry" />
        </mxCell>
        <mxCell id="9xJEDV4C4dEwRKaLVc5d-120" value="RoundState &amp;lt;Enum&amp;gt;" style="swimlane;whiteSpace=wrap;html=1;startSize=23;" vertex="1" parent="1">
          <mxGeometry x="725" width="145" height="198.25" as="geometry">
            <mxRectangle x="110" y="70" width="80" height="30" as="alternateBounds" />
          </mxGeometry>
        </mxCell>
        <mxCell id="9xJEDV4C4dEwRKaLVc5d-121" value="INIT_DEAL&lt;br&gt;INIT_DEAL_BET&lt;br&gt;FLOP_DEAL&lt;br&gt;FLOP_DEAL_BET&lt;br&gt;RIVER_DEAL&lt;br&gt;RIVER_DEAL_BET&lt;br&gt;TURN_DEAL&lt;br&gt;TURN_DEAL_BET&lt;br&gt;EVAL&lt;br&gt;FINISH" style="text;html=1;align=center;verticalAlign=middle;resizable=0;points=[];autosize=1;strokeColor=none;fillColor=none;" vertex="1" parent="9xJEDV4C4dEwRKaLVc5d-120">
          <mxGeometry y="31.25" width="130" height="160" as="geometry" />
        </mxCell>
      </root>
    </mxGraphModel>
  </diagram>
</mxfile>
